<mxfile host="app.diagrams.net" modified="2024-01-06T09:14:24.690Z" agent="Mozilla/5.0 (Windows NT 10.0; Win64; x64) AppleWebKit/537.36 (KHTML, like Gecko) Chrome/120.0.0.0 Safari/537.36" etag="154rKuLYCIluKAG6Tr5B" version="22.1.17" type="github">
  <diagram name="第 1 页" id="RVgRIpaS9BxMII-8VUlw">
    <mxGraphModel dx="1434" dy="746" grid="0" gridSize="10" guides="1" tooltips="1" connect="1" arrows="1" fold="1" page="1" pageScale="1" pageWidth="827" pageHeight="1169" math="0" shadow="0">
      <root>
        <mxCell id="0" />
        <mxCell id="1" parent="0" />
        <mxCell id="2MH4tSoX-UoO129UUxs2-1" value="" style="rounded=0;whiteSpace=wrap;html=1;strokeWidth=2;fillWeight=4;hachureGap=8;hachureAngle=45;fillColor=#CCE5FF;shadow=0;sketch=1;curveFitting=1;jiggle=2;glass=0;" vertex="1" parent="1">
          <mxGeometry x="156" y="57" width="506" height="716" as="geometry" />
        </mxCell>
        <mxCell id="2MH4tSoX-UoO129UUxs2-2" value="&lt;font face=&quot;Comic Sans MS&quot;&gt;启动类加载器&lt;br&gt;BootstrapClassLoader&lt;br&gt;&lt;/font&gt;" style="rounded=1;whiteSpace=wrap;html=1;strokeWidth=2;fillWeight=4;hachureGap=8;hachureAngle=45;fillColor=#FFCCCC;sketch=1;" vertex="1" parent="1">
          <mxGeometry x="320" y="112" width="166" height="67" as="geometry" />
        </mxCell>
        <mxCell id="2MH4tSoX-UoO129UUxs2-5" value="" style="edgeStyle=orthogonalEdgeStyle;rounded=0;orthogonalLoop=1;jettySize=auto;html=1;" edge="1" parent="1" source="2MH4tSoX-UoO129UUxs2-3" target="2MH4tSoX-UoO129UUxs2-2">
          <mxGeometry relative="1" as="geometry" />
        </mxCell>
        <mxCell id="2MH4tSoX-UoO129UUxs2-3" value="&lt;font face=&quot;Comic Sans MS&quot;&gt;扩展类加载器&lt;br&gt;ExtensionClassLoader&lt;br&gt;&lt;/font&gt;" style="rounded=1;whiteSpace=wrap;html=1;strokeWidth=2;fillWeight=4;hachureGap=8;hachureAngle=45;fillColor=#FFFF99;sketch=1;" vertex="1" parent="1">
          <mxGeometry x="320" y="250" width="166" height="67" as="geometry" />
        </mxCell>
        <mxCell id="2MH4tSoX-UoO129UUxs2-6" value="" style="edgeStyle=orthogonalEdgeStyle;rounded=0;orthogonalLoop=1;jettySize=auto;html=1;" edge="1" parent="1" source="2MH4tSoX-UoO129UUxs2-4" target="2MH4tSoX-UoO129UUxs2-3">
          <mxGeometry relative="1" as="geometry" />
        </mxCell>
        <mxCell id="2MH4tSoX-UoO129UUxs2-4" value="&lt;font face=&quot;Comic Sans MS&quot;&gt;应用类加载器&lt;br&gt;AppClassLoader&lt;br&gt;&lt;/font&gt;" style="rounded=1;whiteSpace=wrap;html=1;strokeWidth=2;fillWeight=4;hachureGap=8;hachureAngle=45;fillColor=#FFCCE6;sketch=1;" vertex="1" parent="1">
          <mxGeometry x="320" y="388" width="166" height="67" as="geometry" />
        </mxCell>
        <mxCell id="2MH4tSoX-UoO129UUxs2-9" value="" style="edgeStyle=orthogonalEdgeStyle;rounded=0;orthogonalLoop=1;jettySize=auto;html=1;" edge="1" parent="1" source="2MH4tSoX-UoO129UUxs2-7" target="2MH4tSoX-UoO129UUxs2-4">
          <mxGeometry relative="1" as="geometry" />
        </mxCell>
        <mxCell id="2MH4tSoX-UoO129UUxs2-7" value="&lt;font face=&quot;Comic Sans MS&quot;&gt;自定义类加载器&lt;br&gt;CustomClassLoader&lt;br&gt;&lt;/font&gt;" style="rounded=1;whiteSpace=wrap;html=1;strokeWidth=2;fillWeight=4;hachureGap=8;hachureAngle=45;fillColor=#FFE6CC;sketch=1;" vertex="1" parent="1">
          <mxGeometry x="219" y="526" width="166" height="67" as="geometry" />
        </mxCell>
        <mxCell id="2MH4tSoX-UoO129UUxs2-10" value="" style="edgeStyle=orthogonalEdgeStyle;rounded=0;orthogonalLoop=1;jettySize=auto;html=1;" edge="1" parent="1" source="2MH4tSoX-UoO129UUxs2-8" target="2MH4tSoX-UoO129UUxs2-4">
          <mxGeometry relative="1" as="geometry" />
        </mxCell>
        <mxCell id="2MH4tSoX-UoO129UUxs2-8" value="&lt;font face=&quot;Comic Sans MS&quot;&gt;自定义类加载器&lt;br&gt;CustomClassLoader&lt;br&gt;&lt;/font&gt;" style="rounded=1;whiteSpace=wrap;html=1;strokeWidth=2;fillWeight=4;hachureGap=8;hachureAngle=45;fillColor=#FFE6CC;sketch=1;" vertex="1" parent="1">
          <mxGeometry x="434" y="526" width="166" height="67" as="geometry" />
        </mxCell>
        <mxCell id="2MH4tSoX-UoO129UUxs2-12" value="" style="edgeStyle=orthogonalEdgeStyle;rounded=0;orthogonalLoop=1;jettySize=auto;html=1;" edge="1" parent="1" source="2MH4tSoX-UoO129UUxs2-11" target="2MH4tSoX-UoO129UUxs2-7">
          <mxGeometry relative="1" as="geometry" />
        </mxCell>
        <mxCell id="2MH4tSoX-UoO129UUxs2-11" value="&lt;font face=&quot;Comic Sans MS&quot;&gt;自定义类加载器&lt;br&gt;CustomClassLoader&lt;br&gt;&lt;/font&gt;" style="rounded=1;whiteSpace=wrap;html=1;strokeWidth=2;fillWeight=4;hachureGap=8;hachureAngle=45;fillColor=#FFE6CC;sketch=1;" vertex="1" parent="1">
          <mxGeometry x="219" y="647" width="166" height="67" as="geometry" />
        </mxCell>
        <mxCell id="2MH4tSoX-UoO129UUxs2-16" value="" style="html=1;shadow=0;dashed=0;align=center;verticalAlign=middle;shape=mxgraph.arrows2.arrow;dy=0.6;dx=40;direction=north;notch=0;sketch=1;curveFitting=1;jiggle=2;fillColor=#B9E0A5;" vertex="1" parent="1">
          <mxGeometry x="156" y="112" width="70" height="571" as="geometry" />
        </mxCell>
        <mxCell id="2MH4tSoX-UoO129UUxs2-17" value="&lt;font face=&quot;Comic Sans MS&quot;&gt;自底向上查找判断类是否被加载&lt;/font&gt;" style="text;html=1;strokeColor=none;fillColor=none;align=center;verticalAlign=middle;whiteSpace=wrap;rounded=0;" vertex="1" parent="1">
          <mxGeometry x="180" y="268.5" width="22" height="306" as="geometry" />
        </mxCell>
        <mxCell id="2MH4tSoX-UoO129UUxs2-18" value="" style="html=1;shadow=0;dashed=0;align=center;verticalAlign=middle;shape=mxgraph.arrows2.arrow;dy=0.6;dx=40;direction=south;notch=0;fillColor=#B9E0A5;sketch=1;curveFitting=1;jiggle=2;" vertex="1" parent="1">
          <mxGeometry x="592" y="112" width="70" height="573" as="geometry" />
        </mxCell>
        <mxCell id="2MH4tSoX-UoO129UUxs2-19" value="&lt;font style=&quot;font-size: 12px;&quot; face=&quot;Comic Sans MS&quot;&gt;自顶向下尝试加载类&lt;/font&gt;" style="text;html=1;strokeColor=none;fillColor=none;align=center;verticalAlign=middle;whiteSpace=wrap;rounded=0;fontSize=20;fontFamily=Architects Daughter;" vertex="1" parent="1">
          <mxGeometry x="618.25" y="293.5" width="17.5" height="256" as="geometry" />
        </mxCell>
        <mxCell id="2MH4tSoX-UoO129UUxs2-20" value="自定义类加载器可以有同一个父加载器，且父加载器也可以是自定义类加载器" style="text;html=1;strokeColor=none;fillColor=none;align=center;verticalAlign=middle;whiteSpace=wrap;rounded=0;fontSize=20;fontFamily=Architects Daughter;" vertex="1" parent="1">
          <mxGeometry x="221" y="721" width="376" height="46" as="geometry" />
        </mxCell>
      </root>
    </mxGraphModel>
  </diagram>
</mxfile>
